<?xml version="1.0" encoding="UTF-8"?>
<svg width="16px" height="16px" viewBox="0 0 16 16" version="1.1" xmlns="http://www.w3.org/2000/svg" xmlns:xlink="http://www.w3.org/1999/xlink">
    <title>BTC</title>
    <g id="BRC20-APP" stroke="none" stroke-width="1" fill="none" fill-rule="evenodd">
        <g id="Brc20详情-我的-改价" transform="translate(-242, -657)" fill-rule="nonzero">
            <g id="多项选择器-/-基础样式" transform="translate(0, 496)">
                <g id="BTC" transform="translate(242, 161)">
                    <circle id="椭圆形" fill="#F7931A" cx="8" cy="8" r="8"></circle>
                    <path d="M10.2043127,10.1280296 C10.1391985,10.352329 9.98828988,10.5408363 9.78527539,10.6514694 C9.58292544,10.7633892 9.34484276,10.7884573 9.12415752,10.7210796 L6.8984862,10.0484751 L7.39434437,8.35930511 L9.61985761,9.03198982 L9.61993664,9.03198982 C10.078807,9.17064884 10.3410412,9.66233099 10.2043127,10.1280296 M10.9549759,6.6663659 C11.0651486,6.87176268 11.0898203,7.11332969 11.0234982,7.33728629 C10.8867697,7.80282453 10.4019763,8.06875472 9.94334302,7.93033629 L9.94326399,7.93033629 L7.71767171,7.25773177 L8.21337182,5.56856176 L10.4390431,6.24116627 C10.6600836,6.30729186 10.8458654,6.46040166 10.9549759,6.6663659 M11.9512762,6.11942863 C11.6968663,5.64234216 11.2745886,5.29429119 10.7623705,5.13951274 L10.4678905,5.0505753 L10.8801308,3.64602117 L9.82242129,3.3263596 L9.4101809,4.73091373 L8.50714051,4.45800647 L8.91945993,3.05345235 L8.66607751,2.97686508 L7.6395863,2.66666667 L7.24220427,4.02053686 L5.99125703,3.64249255 L5.63821296,4.84543373 L6.88916021,5.22355824 L5.60399131,9.60210374 L4.35304407,9.22405943 L4,10.4270808 L5.25086823,10.8050449 L4.91552774,11.9477588 L5.16883112,12.0243461 L6.19532233,12.3345445 L6.5456002,11.1411467 L7.45077452,11.4146955 L7.10049663,12.6081736 L8.15393839,12.926552 L8.50421626,11.7330739 L8.80075114,11.822653 C8.98701688,11.8791306 9.18036997,11.9078996 9.37477375,11.9080618 C9.70276409,11.9080618 10.0276721,11.8253796 10.324286,11.6625014 C10.7944582,11.4043502 11.1373859,10.9759428 11.2900002,10.4560316 C11.4504389,9.90917453 11.371247,9.34740101 11.1160468,8.88499041 C11.579343,8.6396706 11.94851,8.2124661 12.1091067,7.66536844 C12.261721,7.14545727 12.205607,6.59643491 11.9512762,6.11942863" id="形状" fill="#FFFFFF"></path>
                </g>
            </g>
        </g>
    </g>
</svg>