<?xml version="1.0" encoding="UTF-8"?>
<svg width="40px" height="40px" viewBox="0 0 40 40" version="1.1" xmlns="http://www.w3.org/2000/svg" xmlns:xlink="http://www.w3.org/1999/xlink">
    <title>铭刻图标</title>
    <g id="BRC20-APP更新" stroke="none" stroke-width="1" fill="none" fill-rule="evenodd">
        <g id="铭刻-铸造" transform="translate(-16, -840)">
            <g id="交易记录" transform="translate(0, 541)">
                <g id="铭刻图标" transform="translate(16, 299)">
                    <circle id="椭圆形" fill="#F7F7F7" cx="20" cy="20" r="20"></circle>
                    <path d="M29.5,19.75 C29.5,18.492 29.008,17.3 28.106,16.386 C27.2,15.492 26.008,15 24.75,15 L21.75,15 C19.131,15 17,17.131 17,19.75 C17,20.164 17.336,20.5 17.75,20.5 C18.164,20.5 18.5,20.164 18.5,19.75 C18.5,17.958 19.958,16.5 21.75,16.5 L24.75,16.5 C25.611,16.5 26.43,16.839 27.046,17.447 C27.661,18.071 28,18.888 28,19.75 C28,21.542 26.542,23 24.75,23 L23.75,23 C23.336,23 23,23.336 23,23.75 C23,24.164 23.336,24.5 23.75,24.5 L24.75,24.5 C27.369,24.5 29.5,22.369 29.5,19.75 M17.75,24.5 L14.75,24.5 C13.492,24.5 12.3,24.008 11.394,23.114 C10.492,22.2 10,21.008 10,19.75 C10,17.131 12.131,15 14.75,15 L15.75,15 C16.164,15 16.5,15.336 16.5,15.75 C16.5,16.164 16.164,16.5 15.75,16.5 L14.75,16.5 C12.958,16.5 11.5,17.958 11.5,19.75 C11.5,20.612 11.839,21.429 12.454,22.053 C13.07,22.661 13.889,23 14.75,23 L17.75,23 C19.542,23 21,21.542 21,19.75 C21,19.336 21.336,19 21.75,19 C22.164,19 22.5,19.336 22.5,19.75 C22.5,22.369 20.369,24.5 17.75,24.5" id="Fill-1" fill="#999999"></path>
                </g>
            </g>
        </g>
    </g>
</svg>